<?xml version="1.0" standalone="no"?>
<svg xmlns:xlink="http://www.w3.org/1999/xlink" id="wave" style="transform:rotate(0deg); transition: 0.3s" viewBox="0 0 1440 100" version="1.1" xmlns="http://www.w3.org/2000/svg"><defs><linearGradient id="sw-gradient-0" x1="0" x2="0" y1="1" y2="0"><stop stop-color="rgba(3, 34, 63, 1)" offset="0%"/><stop stop-color="rgba(3, 34, 63, 1)" offset="100%"/></linearGradient></defs><path style="transform:translate(0, 0px); opacity:1" fill="url(#sw-gradient-0)" d="M0,0L60,11.7C120,23,240,47,360,53.3C480,60,600,50,720,41.7C840,33,960,27,1080,21.7C1200,17,1320,13,1440,11.7C1560,10,1680,10,1800,16.7C1920,23,2040,37,2160,43.3C2280,50,2400,50,2520,53.3C2640,57,2760,63,2880,66.7C3000,70,3120,70,3240,58.3C3360,47,3480,23,3600,25C3720,27,3840,53,3960,63.3C4080,73,4200,67,4320,60C4440,53,4560,47,4680,51.7C4800,57,4920,73,5040,76.7C5160,80,5280,70,5400,58.3C5520,47,5640,33,5760,25C5880,17,6000,13,6120,25C6240,37,6360,63,6480,68.3C6600,73,6720,57,6840,48.3C6960,40,7080,40,7200,48.3C7320,57,7440,73,7560,66.7C7680,60,7800,30,7920,18.3C8040,7,8160,13,8280,13.3C8400,13,8520,7,8580,3.3L8640,0L8640,100L8580,100C8520,100,8400,100,8280,100C8160,100,8040,100,7920,100C7800,100,7680,100,7560,100C7440,100,7320,100,7200,100C7080,100,6960,100,6840,100C6720,100,6600,100,6480,100C6360,100,6240,100,6120,100C6000,100,5880,100,5760,100C5640,100,5520,100,5400,100C5280,100,5160,100,5040,100C4920,100,4800,100,4680,100C4560,100,4440,100,4320,100C4200,100,4080,100,3960,100C3840,100,3720,100,3600,100C3480,100,3360,100,3240,100C3120,100,3000,100,2880,100C2760,100,2640,100,2520,100C2400,100,2280,100,2160,100C2040,100,1920,100,1800,100C1680,100,1560,100,1440,100C1320,100,1200,100,1080,100C960,100,840,100,720,100C600,100,480,100,360,100C240,100,120,100,60,100L0,100Z"/></svg>