<svg xmlns="http://www.w3.org/2000/svg" xmlns:xlink="http://www.w3.org/1999/xlink" style="isolation:isolate" viewBox="0 0 246.8 70" width="246.8pt" height="70pt"><path d=" M 64.3 11 C 66.5 11.2 68 10.8 69 10 C 70 9.2 70.5 7.9 70.5 6 C 70.5 4.9 70.1 3.9 69.2 3.1 C 68.4 2.3 67.1 1.7 65.4 1.4 C 62.7 0.9 59.7 0.6 56.1 0.3 C 52.6 0.1 47.8 0 41.9 0 C 32.3 0 24.4 0.7 18.2 2 C 12.1 3.3 7.5 5.4 4.5 8.2 C 1.5 11 0 14.8 0 19.4 C 0 21.6 0.4 23.6 1.1 25.3 C 1.8 27 2.7 28.4 3.8 29.3 C 4.4 29.9 5.2 30.1 6.1 30.1 C 7.4 30.1 8.7 29.6 9.9 28.7 C 11.1 27.8 11.7 26.8 11.7 25.8 C 11.7 25.4 11.6 25 11.4 24.6 C 10.3 22.9 9.8 21.1 9.8 19.2 C 9.8 17.2 10.4 15.5 11.7 14.2 C 13 12.9 15.1 11.9 18.2 11.2 C 21.2 10.5 25.4 10 30.7 9.9 C 30.4 11.2 30.2 12.4 30 13.5 C 29.8 14.6 29.6 15.5 29.4 16.3 C 28.6 20 27.9 23.9 27.1 28 C 26.3 32.1 25.7 36.3 25.1 40.4 C 24.8 42.9 24.3 45.8 23.7 49.1 C 23.2 52.5 22.7 55.7 22.3 58.7 C 21.9 61.7 21.7 63.9 21.7 65.2 C 21.7 66.6 22.2 67.8 23.2 68.7 C 24.2 69.6 25.6 70 27.3 70 C 29 70 30.4 69.6 31.6 68.7 C 32.8 67.8 33.4 66.6 33.6 65 C 33.8 62 34.2 58 34.9 53.1 C 35.5 48.2 36.2 43.9 36.8 40.1 C 38.5 29.9 40.3 19.7 42.3 9.6 C 46.7 9.7 50.3 9.8 53.1 9.9 C 55.7 10.3 59.5 10.6 64.3 11 Z " fill-rule="evenodd" fill="rgb(255,255,255)"></path><path d=" M 239.8 32.1 C 237.8 32.1 236.3 32.4 235.4 33 C 234.5 33.6 233.8 34.7 233.4 36.2 C 232.1 41.5 231 47.2 230.3 53.4 C 228.9 54.9 227.8 56.1 226.9 56.9 C 225.5 58.1 224.4 58.7 223.4 58.7 C 222 58.7 221.2 57.7 221.2 55.7 C 221.2 54.3 221.7 51.5 222.6 47.2 C 223.7 42.2 224.2 38.7 224.2 36.8 C 224.2 33.6 222.6 32 219.4 32 C 216.8 32 214 33.4 210.9 36.1 C 207.9 38.9 205.1 43.3 202.7 49.3 C 202.8 48.4 203.1 47.1 203.5 45.3 C 204.4 41.2 204.9 38.3 204.9 36.7 C 204.9 35.1 204.5 33.9 203.8 33.1 C 203.1 32.3 201.9 31.9 200.1 31.9 C 198.4 31.9 196.5 32.6 194.6 33.9 C 192.6 35.2 190.7 37.2 188.9 39.8 C 187 42.5 185.4 45.7 184.1 49.6 C 184.3 47.4 184.5 45.6 184.8 44.2 C 185.1 42.7 185.5 41 186 39.1 C 186.7 36.3 187.1 34.6 187.1 33.8 C 187.1 33.1 186.9 32.6 186.5 32.4 C 186.1 32.2 185.4 32 184.4 32 C 182.6 32 181.1 32.3 180.1 33 C 179.1 33.7 178.4 34.7 177.9 36.1 C 176.2 41.4 175.3 47.1 175.2 53 C 173.7 54.7 172.5 56 171.5 56.9 C 170.1 58.1 169 58.7 168 58.7 C 166.6 58.7 165.8 57.7 165.8 55.7 C 165.8 54.3 166.3 51.5 167.2 47.2 C 168.3 42.2 168.8 38.7 168.8 36.8 C 168.8 33.6 167.2 32 164 32 C 161.4 32 158.6 33.4 155.5 36.1 C 152.5 38.9 149.7 43.3 147.3 49.3 C 147.4 48.4 147.7 47.1 148.1 45.3 C 149 41.2 149.5 38.3 149.5 36.7 C 149.5 35.1 149.1 33.9 148.4 33.1 C 147.7 32.3 146.5 31.9 144.7 31.9 C 143 31.9 141.1 32.6 139.2 33.9 C 137.2 35.2 135.3 37.2 133.5 39.8 C 131.6 42.5 130 45.7 128.7 49.6 C 128.9 47.4 129.1 45.6 129.4 44.2 C 129.7 42.7 130.1 41 130.6 39.1 C 131.3 36.3 131.7 34.6 131.7 33.8 C 131.7 33.1 131.5 32.6 131.1 32.4 C 130.7 32.2 130 32 129 32 C 127.2 32 125.7 32.3 124.7 33 C 123.7 33.7 123 34.7 122.5 36.1 C 120.8 41.4 119.9 47.1 119.8 53 C 118.3 54.7 117.1 56 116.1 56.9 C 114.7 58.1 113.6 58.7 112.6 58.7 C 112 58.7 111.4 58.4 111 57.9 C 110.6 57.4 110.4 56.7 110.4 55.7 C 110.4 54.2 111.1 50.3 112.5 44 C 113.7 38.5 114.4 35.1 114.4 33.9 C 114.4 33.2 114.2 32.7 113.7 32.4 C 113.3 32.1 112.5 32 111.3 32 C 109.7 32 108.4 32.3 107.6 33 C 106.8 33.6 106.2 34.7 105.8 36.2 C 104.6 40.6 103.4 44.3 102.1 47.3 C 100.8 50.3 99.6 52.5 98.5 54 C 97.4 55.5 96.5 56.2 95.7 56.2 C 95.2 56.2 94.8 56 94.5 55.6 C 94.2 55.2 94.1 54.5 94.1 53.4 C 94.1 51.7 94.6 48.2 95.6 43.1 C 95.9 41.6 96.3 40 96.8 38.1 C 97.3 35.8 97.6 34.5 97.6 34.1 C 97.6 33.4 97.4 32.9 97 32.5 C 96.6 32.2 95.8 32 94.7 32 C 92.8 32 91.4 32.3 90.5 33 C 89.6 33.6 88.9 34.7 88.4 36.2 C 87.3 39.7 86.4 42.9 85.9 46 C 85.4 49.1 85.2 52.5 85.2 56.2 C 85.2 59.3 85.9 61.8 87.3 63.9 C 88.7 65.9 90.5 67 92.8 67 C 94.7 67 96.5 66.1 98.2 64.3 C 99.9 62.5 101.1 59.9 102 56.6 C 102 59.9 102.6 62.5 103.7 64.3 C 104.8 66.1 106.6 67 108.9 67 C 112 67 114.8 66.2 117.3 64.5 C 118.3 63.8 119.3 63 120.3 62.1 C 120.5 62.8 120.6 63.5 120.8 64.1 C 121.6 66.1 122.9 67.1 124.8 67.1 C 126.3 67.1 127.5 66.7 128.2 65.9 C 128.9 65.1 129.5 63.5 130.1 61.2 C 130.7 58.5 131.6 55.8 132.7 53.1 C 133.8 50.3 134.9 48.1 136 46.3 C 137.1 44.5 138.1 43.6 138.8 43.6 C 139.3 43.6 139.6 44 139.6 44.8 C 139.6 45.8 139.4 47.9 139 51 C 138.5 54.5 138.3 57.3 138.3 59.1 C 138.3 61.3 138.7 63.2 139.5 64.8 C 140.3 66.4 141.5 67.1 143.2 67.1 C 144.8 67.1 145.9 66.7 146.7 65.9 C 147.4 65.1 148 63.5 148.6 61.2 C 149.3 58.2 150.3 55.3 151.5 52.6 C 152.7 49.9 153.9 47.7 155.1 46.1 C 156.3 44.5 157.2 43.6 157.8 43.6 C 158.3 43.6 158.6 44 158.6 44.8 C 158.6 46 158.3 48.1 157.6 51.2 C 156.9 54.7 156.6 57.2 156.6 58.6 C 156.6 61.4 157.2 63.5 158.5 64.9 C 159.8 66.4 161.7 67.1 164.2 67.1 C 167.3 67.1 170.1 66.3 172.6 64.6 C 173.6 63.9 174.6 63.1 175.6 62.2 C 175.8 62.9 175.9 63.6 176.1 64.2 C 176.9 66.2 178.2 67.2 180.1 67.2 C 181.6 67.2 182.8 66.8 183.5 66 C 184.2 65.2 184.8 63.6 185.4 61.3 C 186 58.6 186.9 55.9 188 53.2 C 189.1 50.4 190.2 48.2 191.3 46.4 C 192.4 44.6 193.4 43.7 194.1 43.7 C 194.6 43.7 194.9 44.1 194.9 44.9 C 194.9 45.9 194.7 48 194.3 51.1 C 193.8 54.6 193.6 57.4 193.6 59.2 C 193.6 61.4 194 63.3 194.8 64.9 C 195.6 66.5 196.8 67.2 198.5 67.2 C 200.1 67.2 201.2 66.8 202 66 C 202.7 65.2 203.3 63.6 203.9 61.3 C 204.6 58.3 205.6 55.4 206.8 52.7 C 208 50 209.2 47.8 210.4 46.2 C 211.6 44.6 212.5 43.7 213.1 43.7 C 213.6 43.7 213.9 44.1 213.9 44.9 C 213.9 46.1 213.6 48.2 212.9 51.3 C 212.2 54.8 211.9 57.3 211.9 58.7 C 211.9 61.5 212.5 63.6 213.8 65 C 215.1 66.5 217 67.2 219.5 67.2 C 222.6 67.2 225.4 66.4 227.9 64.7 C 228.3 64.4 228.7 64.1 229.2 63.8 C 229.3 64.9 229.5 65.7 230.1 66.3 C 230.7 66.9 231.8 67.3 233.4 67.3 C 235.2 67.3 236.5 67 237.3 66.3 C 238.1 65.7 238.6 64.6 238.7 63 C 239.1 55.9 240.5 47 242.7 36.5 C 242.8 35.8 242.8 35.3 242.8 35.1 C 243 33 241.9 32.1 239.8 32.1 Z " fill-rule="evenodd" fill="rgb(255,255,255)"></path><path d=" M 245 18.2 C 243.8 17.4 242.3 17 240.5 17 C 238.4 17 236.7 17.5 235.4 18.6 C 234 19.7 233.3 21 233.3 22.6 C 233.3 24.2 233.8 25.4 234.9 26.3 C 236 27.2 237.5 27.6 239.6 27.6 C 241.8 27.6 243.5 27.1 244.8 26 C 246.1 24.9 246.8 23.5 246.8 21.7 C 246.7 20.2 246.1 19 245 18.2 Z " fill-rule="evenodd" fill="rgb(255,255,255)"></path><path d=" M 63.8 49.9 C 64.7 48.9 65.7 47.8 66.7 46.7 C 67.8 45.6 68.9 44.5 70.1 43.5 C 71.3 42.5 72.4 41.7 73.6 41 C 74.8 40.3 75.9 40 76.9 40 C 77.2 40 77.4 40 77.8 40.1 C 78.2 40.2 78.4 40.3 78.7 40.6 C 79 40.8 79.2 41.1 79.4 41.5 C 79.6 41.9 79.7 42.4 79.7 43 C 79.7 44.3 79.5 45.5 79.1 46.7 C 78.7 47.9 78.3 49.1 77.8 50.3 C 77.3 51.5 76.9 52.7 76.5 53.9 C 76.1 55.1 75.9 56.4 75.9 57.8 C 75.9 58.5 76 59.1 76.3 59.6 C 76.6 60.1 76.9 60.3 77.3 60.3 C 77.8 60.3 78.4 60.2 78.9 60 C 79.4 59.8 80.1 59.6 80.6 59.3 C 81.1 59 81.7 58.7 82.3 58.3 C 82.9 57.9 83.4 57.5 83.9 57.1 C 85.1 56.2 86.2 55.1 87.4 53.9 L 87.9 61.3 C 87.5 61.6 87 61.9 86.4 62.3 C 85.8 62.7 85.2 63.1 84.4 63.5 C 83.7 63.9 82.9 64.4 82.1 64.8 C 81.3 65.2 80.4 65.6 79.6 66 C 78.8 66.3 77.9 66.6 77.1 66.8 C 76.3 67 75.5 67.1 74.7 67.1 C 73.5 67.1 72.5 66.8 71.6 66.3 C 70.7 65.8 70 65.1 69.5 64.2 C 68.9 63.4 68.5 62.4 68.3 61.4 C 68 60.4 67.9 59.5 67.9 58.6 C 67.9 58 68 57.4 68.2 56.6 C 68.4 55.9 68.6 55.1 68.9 54.4 C 69.2 53.7 69.5 52.9 69.8 52.2 C 70.1 51.5 70.4 50.9 70.7 50.3 C 71 49.7 71.2 49.3 71.5 48.9 C 71.7 48.6 71.9 48.3 71.9 48.3 L 71.2 48.2 C 70.8 48.4 70.2 48.9 69.4 49.7 C 68.5 50.5 67.6 51.6 66.5 52.8 C 65.4 54.1 64.3 55.5 63.1 57.1 C 61.9 58.7 60.9 60.3 59.9 62 C 59.4 62.8 59 63.6 58.7 64.2 C 58.4 64.8 58.1 65.3 57.8 65.7 C 57.5 66.1 57.2 66.4 56.9 66.6 C 56.6 66.8 56.1 66.9 55.6 66.9 C 54.9 66.9 54.3 66.7 53.9 66.4 C 53.5 66.1 53.2 65.6 53 65 C 52.8 64.4 52.6 63.8 52.6 63 C 52.5 62.3 52.5 61.5 52.5 60.7 C 52.5 59.5 52.5 57.8 52.5 55.8 C 52.5 53.8 52.6 51.6 52.8 49.1 C 53 46.7 53.2 44.1 53.5 41.4 C 53.8 38.7 54.3 36 54.9 33.4 C 55.5 30.8 56.2 28.3 57.1 25.9 C 58 23.5 59.1 21.4 60.3 19.6 C 61.6 17.8 63.1 16.3 64.8 15.3 C 66.5 14.2 68.5 13.7 70.7 13.7 C 71.9 13.7 72.8 13.8 73.5 14.1 C 74.2 14.4 74.8 14.8 75.3 15.3 C 75.7 15.8 76 16.5 76.2 17.2 C 76.4 17.9 76.5 18.8 76.5 19.7 C 76.5 21.1 76.3 22.6 75.8 24.2 C 75.4 25.9 74.8 27.6 74 29.4 C 73.3 31.2 72.4 33 71.5 34.8 C 70.6 36.6 69.6 38.4 68.6 40.1 C 67.6 41.8 66.7 43.5 65.7 45 C 64.7 46.5 63.9 47.9 63.2 49 L 63.8 49.9 Z  M 66.7 32.9 C 68 30.1 68.9 27.7 69.4 25.8 C 70 23.9 70.2 22.4 70.2 21.5 C 70.2 20.1 70 19.4 69.6 19.4 C 69 19.4 68.2 20.2 67.1 21.8 C 66 23.4 64.7 25.6 63.3 28.6 C 62.9 29.6 62.6 30.7 62.3 31.8 C 62 32.8 61.7 33.8 61.5 34.9 C 61.3 36 61 37 60.8 38.1 C 60.6 39.1 60.4 40.1 60.3 41.1 C 59.9 43.3 59.7 45.4 59.5 47.5 C 60.1 46.3 60.7 45.1 61.4 43.7 C 62.1 42.3 62.8 41 63.4 39.6 C 64.1 38.3 64.7 37 65.3 35.8 C 65.8 34.7 66.3 33.7 66.7 32.9 Z " fill="rgb(255,255,255)" stroke-width="1.6" stroke="rgb(255,255,255)" stroke-linejoin="miter" stroke-linecap="butt" stroke-miterlimit="10"></path></svg>